{"title":"Taylor Swift-Mine(2010)(TVRip CMT).AVI","uid":5796342,"size":120058546,"categoryP":"video","categoryS":"music_videos","magnet":"?xt=urn:btih:824ad57163ee79aba889dfd3e9b3d5ec855e6d02&amp;dn=Taylor+Swift-Mine%282010%29%28TVRip+CMT%29.AVI&amp;tr=udp%3A%2F%2Ftracker.openbittorrent.com%3A80&amp;tr=udp%3A%2F%2Fopen.demonii.com%3A1337&amp;tr=udp%3A%2F%2Ftracker.coppersurfer.tk%3A6969&amp;tr=udp%3A%2F%2Fexodus.desync.com%3A6969","seeders":0,"leechers":0,"uploader":"wushan","files":1,"time":1283073105,"description":"                    Taylor Swift-Mine(TVRip CMT).AVI.torrent\n\n\n\n      Taylor Swift-Mine(TVRip CMT).AVI\n      Format : AVI\n      Format/Info : Audio Video Interleave\n      File size : 114 MiB\n      Duration : 3mn 48s\n      Overall bit rate : 4 208 Kbps\n   Video\n      Format : MPEG-4 Visual\n      Format profile : Simple@L3\n      Format settings, BVOP : No\n      Format settings, QPel : No\n      Format settings, GMC : No warppoints\n      Format settings, Matrix : Default\n      Codec ID : XVID\n      Codec ID/Hint : XviD\n      Duration : 3mn 48s\n      Bit rate : 3 973 Kbps\n      Width : 1 280 pixels\n      Height : 720 pixels\n      Display aspect ratio : 16/9\n      Frame rate : 30.000 fps\n      Resolution : 24 bits\n      Colorimetry : 4:2:0\n      Scan type : Progressive\n      Bits/(Pixel*Frame) : 0.144\n      Stream size : 108 MiB (94%)\n      Writing library : ZJMedia MPEG Encoder\n   Audio\n      Format : MPEG Audio\n      Format version : Version 1\n      Format profile : Layer 3\n      Codec ID : 55\n      Codec ID/Hint : MP3\n      Duration : 3mn 48s\n      Bit rate mode : Constant\n      Bit rate : 224 Kbps\n      Channel(s) : 2 channels\n      Sampling rate : 44.1 KHz\n      Resolution : 16 bits\n      Stream size : 6.10 MiB (5%)\n      Alignment : Split accross interleaves\n      Interleave, duration : 997 ms (29.90 video frames)","torrent":{"xt":"urn:btih:824ad57163ee79aba889dfd3e9b3d5ec855e6d02","amp;dn":"Taylor+Swift-Mine%282010%29%28TVRip+CMT%29.AVI","amp;tr":["udp%3A%2F%2Ftracker.openbittorrent.com%3A80","udp%3A%2F%2Fopen.demonii.com%3A1337","udp%3A%2F%2Ftracker.coppersurfer.tk%3A6969","udp%3A%2F%2Fexodus.desync.com%3A6969"],"infoHash":"824ad57163ee79aba889dfd3e9b3d5ec855e6d02","infoHashBuffer":{"type":"Buffer","data":[130,74,213,113,99,238,121,171,168,137,223,211,233,179,213,236,133,94,109,2]},"announce":[],"urlList":[]}}